<?xml version="1.0" standalone="no"?>
<!DOCTYPE svg PUBLIC "-//W3C//DTD SVG 20010904//EN"
 "http://www.w3.org/TR/2001/REC-SVG-20010904/DTD/svg10.dtd">
<svg version="1.0" xmlns="http://www.w3.org/2000/svg"
 width="225.000000pt" height="225.000000pt" viewBox="0 0 225.000000 225.000000"
 preserveAspectRatio="xMidYMid meet">
<metadata>
Created by potrace 1.14, written by Peter Selinger 2001-2017
</metadata>
<g transform="translate(0.000000,225.000000) scale(0.100000,-0.100000)"
fill="#000000" stroke="none">
<path d="M360 2160 l0 -90 -45 0 -45 0 0 -90 0 -90 45 0 45 0 0 -45 0 -45 45
0 45 0 0 -45 0 -45 -45 0 -45 0 0 -90 0 -90 45 0 45 0 0 -45 0 -45 45 0 45 0
0 -45 0 -45 45 0 45 0 0 -45 0 -45 -90 0 -90 0 0 -45 0 -45 -45 0 -45 0 0 -90
0 -90 -45 0 -45 0 0 -180 0 -180 45 0 45 0 0 -45 0 -45 135 0 135 0 0 -45 0
-45 -45 0 -45 0 0 -45 0 -45 -45 0 -45 0 0 -45 0 -45 -90 0 -90 0 0 -45 0 -45
-45 0 -45 0 0 -90 0 -90 405 0 405 0 0 135 0 135 45 0 45 0 0 45 0 45 45 0 45
0 0 -45 0 -45 45 0 45 0 0 -135 0 -135 405 0 405 0 0 90 0 90 -45 0 -45 0 0
45 0 45 -90 0 -90 0 0 45 0 45 -45 0 -45 0 0 45 0 45 -45 0 -45 0 0 45 0 45
135 0 135 0 0 45 0 45 45 0 45 0 0 180 0 180 -45 0 -45 0 0 90 0 90 -45 0 -45
0 0 45 0 45 -45 0 -45 0 0 180 0 180 45 0 45 0 0 180 0 180 -45 0 -45 0 0 90
0 90 -90 0 -90 0 0 -45 0 -45 -45 0 -45 0 0 90 0 90 -90 0 -90 0 0 -45 0 -45
-45 0 -45 0 0 -45 0 -45 -45 0 -45 0 0 45 0 45 -45 0 -45 0 0 45 0 45 -90 0
-90 0 0 -45 0 -45 -90 0 -90 0 0 45 0 45 -135 0 -135 0 0 -90z m450 -540 l0
-90 45 0 45 0 0 45 0 45 55 0 55 0 0 45 0 45 170 0 170 0 0 -45 0 -45 45 0 45
0 0 45 0 45 90 0 90 0 0 -225 0 -225 -45 0 -45 0 0 -45 0 -45 135 0 135 0 0
-135 0 -135 28 -1 c15 -1 33 -1 40 0 8 1 12 -12 12 -38 0 -38 -1 -39 -40 -43
l-40 -4 0 43 0 43 -47 1 c-27 1 -87 0 -135 -1 l-88 -2 0 46 0 46 -45 0 -45 0
0 -45 0 -45 -45 0 -45 0 0 45 0 45 45 0 45 0 0 45 0 45 -135 0 -135 0 0 45 0
45 -45 0 -45 0 0 -45 0 -45 -45 0 -45 0 0 45 0 45 -45 0 -45 0 0 45 0 45 -45
0 -45 0 0 90 0 90 -45 0 -45 0 0 135 0 135 45 0 45 0 0 -90z m-90 -450 l0 -90
45 0 45 0 0 -45 0 -45 45 0 45 0 0 -45 0 -45 -45 0 -45 0 0 45 0 45 -45 0 -45
0 0 -45 0 -45 -135 1 -135 0 0 135 0 134 90 0 90 0 0 45 0 45 45 0 45 0 0 -90z
m540 -209 c0 -15 -3 -55 -6 -87 l-6 -59 -129 -2 -129 -2 0 89 0 90 135 0 135
0 0 -29z m-818 -91 c6 -42 -1 -50 -43 -50 -38 0 -39 1 -39 33 0 42 5 47 45 45
28 -1 34 -5 37 -28z m188 -150 l0 -90 45 0 45 0 0 -45 0 -45 -45 0 -45 0 0 45
0 45 -45 0 -45 0 0 49 c0 48 0 48 -32 49 -18 0 -39 0 -45 1 -8 1 -13 16 -13
41 l0 40 90 0 90 0 0 -90z m1160 50 c0 -42 -3 -44 -57 -42 -21 1 -23 -3 -23
-48 l0 -50 -45 0 -45 0 0 -45 0 -45 -45 0 -45 0 0 45 0 45 45 0 45 0 0 90 0
90 85 0 85 0 0 -40z m-1344 -93 l3 -37 -44 0 c-44 0 -45 1 -45 33 0 43 6 48
48 44 32 -2 35 -5 38 -40z m1414 31 c0 -9 4 -8 10 2 7 11 10 4 10 -27 l0 -43
-39 0 c-40 0 -40 0 -39 40 0 37 2 40 29 40 16 0 29 -5 29 -12z m-1140 -393 l0
-45 90 0 90 0 0 -45 0 -45 -135 0 -135 0 0 90 0 90 45 0 45 0 0 -45z m900 -45
l0 -90 -135 0 -135 0 0 45 0 45 90 0 90 0 0 45 0 45 45 0 45 0 0 -90z m-1080
-45 l0 -45 -45 0 -45 0 0 45 0 45 45 0 45 0 0 -45z m1260 0 l0 -45 -45 0 -45
0 0 45 0 45 45 0 45 0 0 -45z"/>
<path d="M1184 1506 c-3 -8 -1 -23 4 -33 7 -12 7 -25 0 -36 -5 -10 -7 -31 -3
-46 6 -27 9 -28 61 -30 41 -1 56 3 61 14 5 14 7 14 17 0 8 -12 10 3 8 64 -3
77 -13 95 -34 66 -5 -6 -8 -5 -8 3 0 18 -99 16 -106 -2z m133 -88 c-3 -8 -6
-5 -6 6 -1 11 2 17 5 13 3 -3 4 -12 1 -19z"/>
<path d="M1458 1513 c-3 -7 -3 -92 1 -140 1 -7 10 -13 21 -13 24 0 32 28 28
101 -3 47 -6 54 -25 57 -11 2 -23 0 -25 -5z"/>
<path d="M1170 1215 l0 -45 135 0 135 0 0 -45 0 -45 45 0 45 0 0 45 0 45 -45
0 -45 0 0 45 0 45 -135 0 -135 0 0 -45z"/>
</g>
</svg>
